<mxfile host="65bd71144e">
    <diagram id="WHhWUBudlvh6sGkOwT6w" name="Page-1">
        <mxGraphModel dx="1116" dy="779" grid="1" gridSize="10" guides="1" tooltips="1" connect="1" arrows="1" fold="1" page="1" pageScale="1" pageWidth="1169" pageHeight="827" background="#E6E6E6" math="0" shadow="0">
            <root>
                <mxCell id="0"/>
                <mxCell id="1" parent="0"/>
                <mxCell id="2" value="Administrator " style="swimlane;fontStyle=0;childLayout=stackLayout;horizontal=1;startSize=26;fillColor=#647687;horizontalStack=0;resizeParent=1;resizeParentMax=0;resizeLast=0;collapsible=1;marginBottom=0;fontColor=#ffffff;strokeColor=#314354;" vertex="1" parent="1">
                    <mxGeometry x="40" y="120" width="140" height="120" as="geometry"/>
                </mxCell>
                <mxCell id="3" value="id_admin&#10;last_name&#10;first_name&#10;email &#10;password &#10;role " style="text;strokeColor=none;fillColor=none;align=left;verticalAlign=top;spacingLeft=4;spacingRight=4;overflow=hidden;rotatable=0;points=[[0,0.5],[1,0.5]];portConstraint=eastwest;fontColor=#000000;" vertex="1" parent="2">
                    <mxGeometry y="26" width="140" height="94" as="geometry"/>
                </mxCell>
                <mxCell id="4" value="Services" style="swimlane;fontStyle=0;childLayout=stackLayout;horizontal=1;startSize=26;fillColor=#647687;horizontalStack=0;resizeParent=1;resizeParentMax=0;resizeLast=0;collapsible=1;marginBottom=0;fontColor=#ffffff;strokeColor=#314354;" vertex="1" parent="1">
                    <mxGeometry x="280" y="80" width="140" height="100" as="geometry"/>
                </mxCell>
                <mxCell id="5" value="id_service&#10;title&#10;content &#10;picture " style="text;strokeColor=none;fillColor=none;align=left;verticalAlign=top;spacingLeft=4;spacingRight=4;overflow=hidden;rotatable=0;points=[[0,0.5],[1,0.5]];portConstraint=eastwest;fontColor=#000000;" vertex="1" parent="4">
                    <mxGeometry y="26" width="140" height="74" as="geometry"/>
                </mxCell>
                <mxCell id="6" value="Planning" style="swimlane;fontStyle=0;childLayout=stackLayout;horizontal=1;startSize=26;fillColor=#647687;horizontalStack=0;resizeParent=1;resizeParentMax=0;resizeLast=0;collapsible=1;marginBottom=0;fontColor=#ffffff;strokeColor=#314354;" vertex="1" parent="1">
                    <mxGeometry x="280" y="240" width="140" height="140" as="geometry"/>
                </mxCell>
                <mxCell id="7" value="id_planning&#10;planning1 &#10;hours1 &#10;planning2 &#10;hours2 &#10;planning3 &#10;hours3 " style="text;strokeColor=none;fillColor=none;align=left;verticalAlign=top;spacingLeft=4;spacingRight=4;overflow=hidden;rotatable=0;points=[[0,0.5],[1,0.5]];portConstraint=eastwest;fontColor=#000000;" vertex="1" parent="6">
                    <mxGeometry y="26" width="140" height="114" as="geometry"/>
                </mxCell>
                <mxCell id="8" value="Creation Account Employee" style="swimlane;fontStyle=0;childLayout=stackLayout;horizontal=1;startSize=26;fillColor=#647687;horizontalStack=0;resizeParent=1;resizeParentMax=0;resizeLast=0;collapsible=1;marginBottom=0;fontColor=#ffffff;strokeColor=#314354;" vertex="1" parent="1">
                    <mxGeometry x="480" y="160" width="200" height="120" as="geometry"/>
                </mxCell>
                <mxCell id="9" value="id_user&#10;last_name&#10;first_name&#10;email &#10;password &#10;role " style="text;strokeColor=none;fillColor=none;align=left;verticalAlign=top;spacingLeft=4;spacingRight=4;overflow=hidden;rotatable=0;points=[[0,0.5],[1,0.5]];portConstraint=eastwest;fontColor=#000000;" vertex="1" parent="8">
                    <mxGeometry y="26" width="200" height="94" as="geometry"/>
                </mxCell>
                <mxCell id="10" value="Employee" style="swimlane;fontStyle=0;childLayout=stackLayout;horizontal=1;startSize=26;fillColor=#647687;horizontalStack=0;resizeParent=1;resizeParentMax=0;resizeLast=0;collapsible=1;marginBottom=0;fontColor=#ffffff;strokeColor=#314354;" vertex="1" parent="1">
                    <mxGeometry x="40" y="480" width="140" height="120" as="geometry"/>
                </mxCell>
                <mxCell id="11" value="id_employee&#10;last_name&#10;first_name&#10;email &#10;password &#10;role " style="text;strokeColor=none;fillColor=none;align=left;verticalAlign=top;spacingLeft=4;spacingRight=4;overflow=hidden;rotatable=0;points=[[0,0.5],[1,0.5]];portConstraint=eastwest;fontColor=#000000;" vertex="1" parent="10">
                    <mxGeometry y="26" width="140" height="94" as="geometry"/>
                </mxCell>
                <mxCell id="12" value="Opinion" style="swimlane;fontStyle=0;childLayout=stackLayout;horizontal=1;startSize=26;fillColor=#647687;horizontalStack=0;resizeParent=1;resizeParentMax=0;resizeLast=0;collapsible=1;marginBottom=0;fontColor=#ffffff;strokeColor=#314354;" vertex="1" parent="1">
                    <mxGeometry x="280" y="409" width="140" height="100" as="geometry"/>
                </mxCell>
                <mxCell id="13" value="id_opinion&#10;client_name &#10;opinion&#10;note" style="text;strokeColor=none;fillColor=none;align=left;verticalAlign=top;spacingLeft=4;spacingRight=4;overflow=hidden;rotatable=0;points=[[0,0.5],[1,0.5]];portConstraint=eastwest;fontColor=#000000;" vertex="1" parent="12">
                    <mxGeometry y="26" width="140" height="74" as="geometry"/>
                </mxCell>
                <mxCell id="14" value="Cars" style="swimlane;fontStyle=0;childLayout=stackLayout;horizontal=1;startSize=26;fillColor=#647687;horizontalStack=0;resizeParent=1;resizeParentMax=0;resizeLast=0;collapsible=1;marginBottom=0;fontColor=#ffffff;strokeColor=#314354;" vertex="1" parent="1">
                    <mxGeometry x="280" y="530" width="230" height="290" as="geometry"/>
                </mxCell>
                <mxCell id="15" value="id_car&#10;brand&#10;model&#10;description&#10;created_at&#10;year&#10;mileage&#10;energy&#10;price&#10;transmission&#10;color&#10;doors_number&#10;fiscal_power&#10;interior_equipments&#10;exterior_equipments&#10;security_equipments&#10;others_equipments&#10;pictures" style="text;strokeColor=none;fillColor=none;align=left;verticalAlign=top;spacingLeft=4;spacingRight=4;overflow=hidden;rotatable=0;points=[[0,0.5],[1,0.5]];portConstraint=eastwest;fontColor=#000000;" vertex="1" parent="14">
                    <mxGeometry y="26" width="230" height="264" as="geometry"/>
                </mxCell>
                <mxCell id="18" value="Publish Opinion" style="swimlane;fontStyle=0;childLayout=stackLayout;horizontal=1;startSize=26;fillColor=#647687;horizontalStack=0;resizeParent=1;resizeParentMax=0;resizeLast=0;collapsible=1;marginBottom=0;fontColor=#ffffff;strokeColor=#314354;" vertex="1" parent="1">
                    <mxGeometry x="515" y="409" width="140" height="78" as="geometry"/>
                </mxCell>
                <mxCell id="19" value="id_publish" style="text;strokeColor=none;fillColor=none;align=left;verticalAlign=top;spacingLeft=4;spacingRight=4;overflow=hidden;rotatable=0;points=[[0,0.5],[1,0.5]];portConstraint=eastwest;fontColor=#000000;" vertex="1" parent="18">
                    <mxGeometry y="26" width="140" height="26" as="geometry"/>
                </mxCell>
                <mxCell id="20" value="client_name" style="text;strokeColor=none;fillColor=none;align=left;verticalAlign=top;spacingLeft=4;spacingRight=4;overflow=hidden;rotatable=0;points=[[0,0.5],[1,0.5]];portConstraint=eastwest;fontColor=#FF0000;" vertex="1" parent="18">
                    <mxGeometry y="52" width="140" height="26" as="geometry"/>
                </mxCell>
                <mxCell id="23" value="" style="endArrow=classic;html=1;fontColor=#FF0000;entryX=-0.014;entryY=0.324;entryDx=0;entryDy=0;entryPerimeter=0;strokeColor=#000000;exitX=1.014;exitY=0.319;exitDx=0;exitDy=0;exitPerimeter=0;" edge="1" parent="1" source="3" target="5">
                    <mxGeometry width="50" height="50" relative="1" as="geometry">
                        <mxPoint x="200" y="170" as="sourcePoint"/>
                        <mxPoint x="230" y="130" as="targetPoint"/>
                    </mxGeometry>
                </mxCell>
                <mxCell id="25" value="" style="endArrow=classic;html=1;strokeColor=#000000;fontColor=#FF0000;entryX=-0.029;entryY=0.351;entryDx=0;entryDy=0;entryPerimeter=0;exitX=0.879;exitY=1.053;exitDx=0;exitDy=0;exitPerimeter=0;" edge="1" parent="1" source="3" target="7">
                    <mxGeometry width="50" height="50" relative="1" as="geometry">
                        <mxPoint x="200" y="280" as="sourcePoint"/>
                        <mxPoint x="250" y="230" as="targetPoint"/>
                    </mxGeometry>
                </mxCell>
                <mxCell id="26" value="" style="endArrow=classic;html=1;strokeColor=#000000;fontColor=#FF0000;entryX=-0.015;entryY=0.351;entryDx=0;entryDy=0;entryPerimeter=0;exitX=1;exitY=0.809;exitDx=0;exitDy=0;exitPerimeter=0;" edge="1" parent="1" source="3" target="9">
                    <mxGeometry width="50" height="50" relative="1" as="geometry">
                        <mxPoint x="210" y="220" as="sourcePoint"/>
                        <mxPoint x="260" y="170" as="targetPoint"/>
                    </mxGeometry>
                </mxCell>
                <mxCell id="27" value="" style="endArrow=classic;html=1;strokeColor=#000000;fontColor=#FF0000;entryX=-0.036;entryY=0.257;entryDx=0;entryDy=0;entryPerimeter=0;exitX=1.071;exitY=0.149;exitDx=0;exitDy=0;exitPerimeter=0;" edge="1" parent="1" source="11" target="13">
                    <mxGeometry width="50" height="50" relative="1" as="geometry">
                        <mxPoint x="200" y="540" as="sourcePoint"/>
                        <mxPoint x="250" y="490" as="targetPoint"/>
                    </mxGeometry>
                </mxCell>
                <mxCell id="28" value="" style="endArrow=classic;html=1;strokeColor=#000000;fontColor=#FF0000;entryX=-0.022;entryY=0.287;entryDx=0;entryDy=0;entryPerimeter=0;exitX=0.857;exitY=1.106;exitDx=0;exitDy=0;exitPerimeter=0;" edge="1" parent="1" source="11" target="15">
                    <mxGeometry width="50" height="50" relative="1" as="geometry">
                        <mxPoint x="170" y="650" as="sourcePoint"/>
                        <mxPoint x="220" y="600" as="targetPoint"/>
                    </mxGeometry>
                </mxCell>
                <mxCell id="29" value="" style="endArrow=classic;html=1;strokeColor=#000000;fontColor=#FF0000;exitX=1.029;exitY=0.23;exitDx=0;exitDy=0;exitPerimeter=0;entryX=-0.021;entryY=0.769;entryDx=0;entryDy=0;entryPerimeter=0;" edge="1" parent="1" source="13" target="19">
                    <mxGeometry width="50" height="50" relative="1" as="geometry">
                        <mxPoint x="460" y="450" as="sourcePoint"/>
                        <mxPoint x="510" y="400" as="targetPoint"/>
                    </mxGeometry>
                </mxCell>
                <mxCell id="30" value="MLD - Modèle logique de données" style="text;html=1;strokeColor=none;fillColor=none;align=center;verticalAlign=middle;whiteSpace=wrap;rounded=0;fontColor=#000000;fontSize=20;" vertex="1" parent="1">
                    <mxGeometry x="50" y="10" width="1060" height="30" as="geometry"/>
                </mxCell>
            </root>
        </mxGraphModel>
    </diagram>
</mxfile>